<?xml version="1.0" encoding="UTF-8"?>
<svg xmlns:xhtml="http://www.w3.org/1999/xhtml" xmlns:xlink="http://www.w3.org/1999/xlink" xmlns="http://www.w3.org/2000/svg" id="mermaid-svg-16" width="100%" class="flowchart" style="max-width: 100%;" viewBox="-49.310845947265626 -49.310845947265626 2102.598254394531 1084.8386108398436" height="100%"><style>#mermaid-svg-16{font-family:"trebuchet ms",verdana,arial,sans-serif;font-size:16px;fill:#333;}@keyframes edge-animation-frame{from{stroke-dashoffset:0;}}@keyframes dash{to{stroke-dashoffset:0;}}#mermaid-svg-16 .edge-animation-slow{stroke-dasharray:9,5!important;stroke-dashoffset:900;animation:dash 50s linear infinite;stroke-linecap:round;}#mermaid-svg-16 .edge-animation-fast{stroke-dasharray:9,5!important;stroke-dashoffset:900;animation:dash 20s linear infinite;stroke-linecap:round;}#mermaid-svg-16 .error-icon{fill:#552222;}#mermaid-svg-16 .error-text{fill:#552222;stroke:#552222;}#mermaid-svg-16 .edge-thickness-normal{stroke-width:1px;}#mermaid-svg-16 .edge-thickness-thick{stroke-width:3.5px;}#mermaid-svg-16 .edge-pattern-solid{stroke-dasharray:0;}#mermaid-svg-16 .edge-thickness-invisible{stroke-width:0;fill:none;}#mermaid-svg-16 .edge-pattern-dashed{stroke-dasharray:3;}#mermaid-svg-16 .edge-pattern-dotted{stroke-dasharray:2;}#mermaid-svg-16 .marker{fill:#333333;stroke:#333333;}#mermaid-svg-16 .marker.cross{stroke:#333333;}#mermaid-svg-16 svg{font-family:"trebuchet ms",verdana,arial,sans-serif;font-size:16px;}#mermaid-svg-16 p{margin:0;}#mermaid-svg-16 .label{font-family:"trebuchet ms",verdana,arial,sans-serif;color:#333;}#mermaid-svg-16 .cluster-label text{fill:#333;}#mermaid-svg-16 .cluster-label span{color:#333;}#mermaid-svg-16 .cluster-label span p{background-color:transparent;}#mermaid-svg-16 .label text,#mermaid-svg-16 span{fill:#333;color:#333;}#mermaid-svg-16 .node rect,#mermaid-svg-16 .node circle,#mermaid-svg-16 .node ellipse,#mermaid-svg-16 .node polygon,#mermaid-svg-16 .node path{fill:#ECECFF;stroke:#9370DB;stroke-width:1px;}#mermaid-svg-16 .rough-node .label text,#mermaid-svg-16 .node .label text,#mermaid-svg-16 .image-shape .label,#mermaid-svg-16 .icon-shape .label{text-anchor:middle;}#mermaid-svg-16 .node .katex path{fill:#000;stroke:#000;stroke-width:1px;}#mermaid-svg-16 .rough-node .label,#mermaid-svg-16 .node .label,#mermaid-svg-16 .image-shape .label,#mermaid-svg-16 .icon-shape .label{text-align:center;}#mermaid-svg-16 .node.clickable{cursor:pointer;}#mermaid-svg-16 .root .anchor path{fill:#333333!important;stroke-width:0;stroke:#333333;}#mermaid-svg-16 .arrowheadPath{fill:#333333;}#mermaid-svg-16 .edgePath .path{stroke:#333333;stroke-width:2.0px;}#mermaid-svg-16 .flowchart-link{stroke:#333333;fill:none;}#mermaid-svg-16 .edgeLabel{background-color:rgba(232,232,232, 0.8);text-align:center;}#mermaid-svg-16 .edgeLabel p{background-color:rgba(232,232,232, 0.8);}#mermaid-svg-16 .edgeLabel rect{opacity:0.5;background-color:rgba(232,232,232, 0.8);fill:rgba(232,232,232, 0.8);}#mermaid-svg-16 .labelBkg{background-color:rgba(232, 232, 232, 0.5);}#mermaid-svg-16 .cluster rect{fill:#ffffde;stroke:#aaaa33;stroke-width:1px;}#mermaid-svg-16 .cluster text{fill:#333;}#mermaid-svg-16 .cluster span{color:#333;}#mermaid-svg-16 div.mermaidTooltip{position:absolute;text-align:center;max-width:200px;padding:2px;font-family:"trebuchet ms",verdana,arial,sans-serif;font-size:12px;background:hsl(80, 100%, 96.2745098039%);border:1px solid #aaaa33;border-radius:2px;pointer-events:none;z-index:100;}#mermaid-svg-16 .flowchartTitleText{text-anchor:middle;font-size:18px;fill:#333;}#mermaid-svg-16 rect.text{fill:none;stroke-width:0;}#mermaid-svg-16 .icon-shape,#mermaid-svg-16 .image-shape{background-color:rgba(232,232,232, 0.8);text-align:center;}#mermaid-svg-16 .icon-shape p,#mermaid-svg-16 .image-shape p{background-color:rgba(232,232,232, 0.8);padding:2px;}#mermaid-svg-16 .icon-shape rect,#mermaid-svg-16 .image-shape rect{opacity:0.5;background-color:rgba(232,232,232, 0.8);fill:rgba(232,232,232, 0.8);}#mermaid-svg-16 .label-icon{display:inline-block;height:1em;overflow:visible;vertical-align:-0.125em;}#mermaid-svg-16 .node .label-icon path{fill:currentColor;stroke:revert;stroke-width:revert;}#mermaid-svg-16 :root{--mermaid-font-family:"trebuchet ms",verdana,arial,sans-serif;}</style><g><marker id="mermaid-svg-16_flowchart-v2-pointEnd" class="marker flowchart-v2" viewBox="0 0 10 10" refX="5" refY="5" markerUnits="userSpaceOnUse" markerWidth="8" markerHeight="8" orient="auto"><path d="M 0 0 L 10 5 L 0 10 z" class="arrowMarkerPath" style="stroke-width: 1; stroke-dasharray: 1, 0;"/></marker><marker id="mermaid-svg-16_flowchart-v2-pointStart" class="marker flowchart-v2" viewBox="0 0 10 10" refX="4.5" refY="5" markerUnits="userSpaceOnUse" markerWidth="8" markerHeight="8" orient="auto"><path d="M 0 5 L 10 10 L 10 0 z" class="arrowMarkerPath" style="stroke-width: 1; stroke-dasharray: 1, 0;"/></marker><marker id="mermaid-svg-16_flowchart-v2-circleEnd" class="marker flowchart-v2" viewBox="0 0 10 10" refX="11" refY="5" markerUnits="userSpaceOnUse" markerWidth="11" markerHeight="11" orient="auto"><circle cx="5" cy="5" r="5" class="arrowMarkerPath" style="stroke-width: 1; stroke-dasharray: 1, 0;"/></marker><marker id="mermaid-svg-16_flowchart-v2-circleStart" class="marker flowchart-v2" viewBox="0 0 10 10" refX="-1" refY="5" markerUnits="userSpaceOnUse" markerWidth="11" markerHeight="11" orient="auto"><circle cx="5" cy="5" r="5" class="arrowMarkerPath" style="stroke-width: 1; stroke-dasharray: 1, 0;"/></marker><marker id="mermaid-svg-16_flowchart-v2-crossEnd" class="marker cross flowchart-v2" viewBox="0 0 11 11" refX="12" refY="5.2" markerUnits="userSpaceOnUse" markerWidth="11" markerHeight="11" orient="auto"><path d="M 1,1 l 9,9 M 10,1 l -9,9" class="arrowMarkerPath" style="stroke-width: 2; stroke-dasharray: 1, 0;"/></marker><marker id="mermaid-svg-16_flowchart-v2-crossStart" class="marker cross flowchart-v2" viewBox="0 0 11 11" refX="-1" refY="5.2" markerUnits="userSpaceOnUse" markerWidth="11" markerHeight="11" orient="auto"><path d="M 1,1 l 9,9 M 10,1 l -9,9" class="arrowMarkerPath" style="stroke-width: 2; stroke-dasharray: 1, 0;"/></marker><g class="root"><g class="clusters"><g class="cluster" id="subGraph5" data-look="classic"><rect style="" x="359.96614837646484" y="574" width="1031.4427032470703" height="104"/><g class="cluster-label" transform="translate(829.203125, 574)"><foreignObject width="92.96875" height="24"><div xmlns="http://www.w3.org/1999/xhtml" style="display: table-cell; white-space: nowrap; line-height: 1.5; max-width: 200px; text-align: center;"><span class="nodeLabel"><p>External APIs</p></span></div></foreignObject></g></g><g class="cluster" id="Storage" data-look="classic"><rect style="" x="8" y="857" width="1987.9765625" height="121.21691131591797"/><g class="cluster-label" transform="translate(974.9830722808838, 857)"><foreignObject width="54.01041793823242" height="24"><div xmlns="http://www.w3.org/1999/xhtml" style="display: table-cell; white-space: nowrap; line-height: 1.5; max-width: 200px; text-align: center;"><span class="nodeLabel"><p>Storage</p></span></div></foreignObject></g></g><g class="cluster" id="subGraph3" data-look="classic"><rect style="" x="1454.3255195617676" y="574" width="433.875" height="233"/><g class="cluster-label" transform="translate(1609.3203086853027, 574)"><foreignObject width="123.88542175292969" height="24"><div xmlns="http://www.w3.org/1999/xhtml" style="display: table-cell; white-space: nowrap; line-height: 1.5; max-width: 200px; text-align: center;"><span class="nodeLabel"><p>Queue &amp; Workers</p></span></div></foreignObject></g></g><g class="cluster" id="Microservices" data-look="classic"><rect style="" x="14.645835876464844" y="420" width="1981.3307266235352" height="104"/><g class="cluster-label" transform="translate(957.5143241882324, 420)"><foreignObject width="95.59375" height="24"><div xmlns="http://www.w3.org/1999/xhtml" style="display: table-cell; white-space: nowrap; line-height: 1.5; max-width: 200px; text-align: center;"><span class="nodeLabel"><p>Microservices</p></span></div></foreignObject></g></g><g class="cluster" id="subGraph1" data-look="classic"><rect style="" x="18.9609375" y="162" width="1548.6067695617676" height="208"/><g class="cluster-label" transform="translate(748.196611404419, 162)"><foreignObject width="90.13542175292969" height="24"><div xmlns="http://www.w3.org/1999/xhtml" style="display: table-cell; white-space: nowrap; line-height: 1.5; max-width: 200px; text-align: center;"><span class="nodeLabel"><p>API Gateway</p></span></div></foreignObject></g></g><g class="cluster" id="subGraph0" data-look="classic"><rect style="" x="201.73697662353516" y="8" width="487.9166717529297" height="104"/><g class="cluster-label" transform="translate(402.2786445617676, 8)"><foreignObject width="86.83333587646484" height="24"><div xmlns="http://www.w3.org/1999/xhtml" style="display: table-cell; white-space: nowrap; line-height: 1.5; max-width: 200px; text-align: center;"><span class="nodeLabel"><p>Client Layer</p></span></div></foreignObject></g></g></g><g class="edgePaths"><path d="M350.003,87L350.003,91.167C350.003,95.333,350.003,103.667,350.003,112C350.003,120.333,350.003,128.667,350.003,137C350.003,145.333,350.003,153.667,358.767,161.729C367.531,169.792,385.059,177.583,393.823,181.479L402.587,185.375" id="L_A_C_0" class="edge-thickness-normal edge-pattern-solid edge-thickness-normal edge-pattern-solid flowchart-link" style="" marker-end="url(#mermaid-svg-16_flowchart-v2-pointEnd)"/><path d="M583.961,87L583.961,91.167C583.961,95.333,583.961,103.667,583.961,112C583.961,120.333,583.961,128.667,583.961,137C583.961,145.333,583.961,153.667,575.197,161.729C566.433,169.792,548.904,177.583,540.14,181.479L531.376,185.375" id="L_B_C_0" class="edge-thickness-normal edge-pattern-solid edge-thickness-normal edge-pattern-solid flowchart-link" style="" marker-end="url(#mermaid-svg-16_flowchart-v2-pointEnd)"/><path d="M391.034,225.518L346.544,232.265C302.054,239.012,213.074,252.506,168.584,262.753C124.094,273,124.094,280,124.094,283.5L124.094,287" id="L_C_E_0" class="edge-thickness-normal edge-pattern-solid edge-thickness-normal edge-pattern-solid flowchart-link" style="" marker-end="url(#mermaid-svg-16_flowchart-v2-pointEnd)"/><path d="M124.094,345L124.094,349.167C124.094,353.333,124.094,361.667,124.094,370C124.094,378.333,124.094,386.667,124.094,395C124.094,403.333,124.094,411.667,124.094,419.333C124.094,427,124.094,434,124.094,437.5L124.094,441" id="L_E_F_0" class="edge-thickness-normal edge-pattern-solid edge-thickness-normal edge-pattern-solid flowchart-link" style="" marker-end="url(#mermaid-svg-16_flowchart-v2-pointEnd)"/><path d="M542.93,226.664L582.249,233.22C621.568,239.776,700.206,252.888,739.525,262.944C778.844,273,778.844,280,778.844,283.5L778.844,287" id="L_C_D_0" class="edge-thickness-normal edge-pattern-solid edge-thickness-normal edge-pattern-solid flowchart-link" style="" marker-end="url(#mermaid-svg-16_flowchart-v2-pointEnd)"/><path d="M700.943,327.894L645.687,334.911C590.431,341.929,479.918,355.965,424.662,367.149C369.406,378.333,369.406,386.667,369.406,395C369.406,403.333,369.406,411.667,369.406,419.333C369.406,427,369.406,434,369.406,437.5L369.406,441" id="L_D_G_0" class="edge-thickness-normal edge-pattern-solid edge-thickness-normal edge-pattern-solid flowchart-link" style="" marker-end="url(#mermaid-svg-16_flowchart-v2-pointEnd)"/><path d="M703.174,345L691.497,349.167C679.819,353.333,656.464,361.667,644.787,370C633.109,378.333,633.109,386.667,633.109,395C633.109,403.333,633.109,411.667,633.109,419.333C633.109,427,633.109,434,633.109,437.5L633.109,441" id="L_D_H_0" class="edge-thickness-normal edge-pattern-solid edge-thickness-normal edge-pattern-solid flowchart-link" style="" marker-end="url(#mermaid-svg-16_flowchart-v2-pointEnd)"/><path d="M856.745,330.863L896.25,337.385C935.756,343.908,1014.767,356.954,1054.273,367.644C1093.779,378.333,1093.779,386.667,1093.779,395C1093.779,403.333,1093.779,411.667,1093.779,419.333C1093.779,427,1093.779,434,1093.779,437.5L1093.779,441" id="L_D_I_0" class="edge-thickness-normal edge-pattern-solid edge-thickness-normal edge-pattern-solid flowchart-link" style="" marker-end="url(#mermaid-svg-16_flowchart-v2-pointEnd)"/><path d="M856.745,323.608L964.14,331.34C1071.536,339.072,1286.326,354.536,1393.722,366.435C1501.117,378.333,1501.117,386.667,1501.117,395C1501.117,403.333,1501.117,411.667,1501.117,419.333C1501.117,427,1501.117,434,1501.117,437.5L1501.117,441" id="L_D_J_0" class="edge-thickness-normal edge-pattern-solid edge-thickness-normal edge-pattern-solid flowchart-link" style="" marker-end="url(#mermaid-svg-16_flowchart-v2-pointEnd)"/><path d="M1466.272,499L1460.895,503.167C1455.517,507.333,1444.763,515.667,1439.385,524C1434.008,532.333,1434.008,540.667,1473.425,549C1512.843,557.333,1591.678,565.667,1631.095,573.333C1670.513,581,1670.513,588,1670.513,591.5L1670.513,595" id="L_J_K_0" class="edge-thickness-normal edge-pattern-solid edge-thickness-normal edge-pattern-solid flowchart-link" style="" marker-end="url(#mermaid-svg-16_flowchart-v2-pointEnd)"/><path d="M1616.789,653L1608.498,657.167C1600.207,661.333,1583.626,669.667,1575.335,678C1567.044,686.333,1567.044,694.667,1567.044,702.333C1567.044,710,1567.044,717,1567.044,720.5L1567.044,724" id="L_K_L_0" class="edge-thickness-normal edge-pattern-solid edge-thickness-normal edge-pattern-solid flowchart-link" style="" marker-end="url(#mermaid-svg-16_flowchart-v2-pointEnd)"/><path d="M1724.237,653L1732.528,657.167C1740.819,661.333,1757.4,669.667,1765.691,678C1773.982,686.333,1773.982,694.667,1773.982,702.333C1773.982,710,1773.982,717,1773.982,720.5L1773.982,724" id="L_K_M_0" class="edge-thickness-normal edge-pattern-solid edge-thickness-normal edge-pattern-solid flowchart-link" style="" marker-end="url(#mermaid-svg-16_flowchart-v2-pointEnd)"/><path d="M124.094,499L124.094,503.167C124.094,507.333,124.094,515.667,124.094,524C124.094,532.333,124.094,540.667,124.094,549C124.094,557.333,124.094,565.667,124.094,578.5C124.094,591.333,124.094,608.667,124.094,626C124.094,643.333,124.094,660.667,124.094,673.5C124.094,686.333,124.094,694.667,124.094,707.5C124.094,720.333,124.094,737.667,124.094,755C124.094,772.333,124.094,789.667,124.094,802.5C124.094,815.333,124.094,823.667,124.094,832C124.094,840.333,124.094,848.667,247.929,862.285C371.763,875.903,619.433,894.807,743.268,904.259L867.103,913.71" id="L_F_N_0" class="edge-thickness-normal edge-pattern-solid edge-thickness-normal edge-pattern-solid flowchart-link" style="" marker-end="url(#mermaid-svg-16_flowchart-v2-pointEnd)"/><path d="M311.91,499L303.037,503.167C294.164,507.333,276.418,515.667,267.545,524C258.672,532.333,258.672,540.667,258.672,549C258.672,557.333,258.672,565.667,258.672,578.5C258.672,591.333,258.672,608.667,258.672,626C258.672,643.333,258.672,660.667,258.672,673.5C258.672,686.333,258.672,694.667,258.672,707.5C258.672,720.333,258.672,737.667,258.672,755C258.672,772.333,258.672,789.667,258.672,802.5C258.672,815.333,258.672,823.667,258.672,832C258.672,840.333,258.672,848.667,246.078,858.174C233.485,867.682,208.298,878.364,195.704,883.706L183.11,889.047" id="L_G_O_0" class="edge-thickness-normal edge-pattern-solid edge-thickness-normal edge-pattern-solid flowchart-link" style="" marker-end="url(#mermaid-svg-16_flowchart-v2-pointEnd)"/><path d="M422.291,499L430.452,503.167C438.613,507.333,454.935,515.667,463.097,524C471.258,532.333,471.258,540.667,472.954,549C474.65,557.333,478.043,565.667,479.739,573.333C481.435,581,481.435,588,481.435,591.5L481.435,595" id="L_G_T_0" class="edge-thickness-normal edge-pattern-solid edge-thickness-normal edge-pattern-solid flowchart-link" style="" marker-end="url(#mermaid-svg-16_flowchart-v2-pointEnd)"/><path d="M569.84,499L560.077,503.167C550.313,507.333,530.785,515.667,521.022,524C511.258,532.333,511.258,540.667,479.376,549C447.494,557.333,383.73,565.667,351.848,578.5C319.966,591.333,319.966,608.667,319.966,626C319.966,643.333,319.966,660.667,319.966,673.5C319.966,686.333,319.966,694.667,319.966,707.5C319.966,720.333,319.966,737.667,319.966,755C319.966,772.333,319.966,789.667,319.966,802.5C319.966,815.333,319.966,823.667,319.966,832C319.966,840.333,319.966,848.667,507.812,862.223C695.657,875.779,1071.348,894.558,1259.193,903.947L1447.039,913.337" id="L_H_P_0" class="edge-thickness-normal edge-pattern-solid edge-thickness-normal edge-pattern-solid flowchart-link" style="" marker-end="url(#mermaid-svg-16_flowchart-v2-pointEnd)"/><path d="M979.857,494.8L955.541,499.667C931.225,504.534,882.593,514.267,858.277,523.3C833.961,532.333,833.961,540.667,833.961,549C833.961,557.333,833.961,565.667,833.961,573.333C833.961,581,833.961,588,833.961,591.5L833.961,595" id="L_I_Q_0" class="edge-thickness-normal edge-pattern-solid edge-thickness-normal edge-pattern-solid flowchart-link" style="" marker-end="url(#mermaid-svg-16_flowchart-v2-pointEnd)"/><path d="M1476.657,499L1472.882,503.167C1469.107,507.333,1461.557,515.667,1457.783,524C1454.008,532.333,1454.008,540.667,1393.526,549C1333.044,557.333,1212.081,565.667,1151.599,573.333C1091.117,581,1091.117,588,1091.117,591.5L1091.117,595" id="L_J_R_0" class="edge-thickness-normal edge-pattern-solid edge-thickness-normal edge-pattern-solid flowchart-link" style="" marker-end="url(#mermaid-svg-16_flowchart-v2-pointEnd)"/><path d="M1532.651,499L1537.517,503.167C1542.384,507.333,1552.116,515.667,1556.983,524C1561.849,532.333,1561.849,540.667,1516.007,549C1470.166,557.333,1378.483,565.667,1332.641,573.333C1286.799,581,1286.799,588,1286.799,591.5L1286.799,595" id="L_J_S_0" class="edge-thickness-normal edge-pattern-solid edge-thickness-normal edge-pattern-solid flowchart-link" style="" marker-end="url(#mermaid-svg-16_flowchart-v2-pointEnd)"/><path d="M1567.044,782L1567.044,786.167C1567.044,790.333,1567.044,798.667,1567.044,807C1567.044,815.333,1567.044,823.667,1567.044,832C1567.044,840.333,1567.044,848.667,1564.182,857.856C1561.32,867.044,1555.595,877.089,1552.733,882.111L1549.871,887.133" id="L_L_P_0" class="edge-thickness-normal edge-pattern-solid edge-thickness-normal edge-pattern-solid flowchart-link" style="" marker-end="url(#mermaid-svg-16_flowchart-v2-pointEnd)"/><path d="M1773.982,782L1773.982,786.167C1773.982,790.333,1773.982,798.667,1773.982,807C1773.982,815.333,1773.982,823.667,1773.982,832C1773.982,840.333,1773.982,848.667,1747.96,859.364C1721.938,870.062,1669.895,883.125,1643.873,889.656L1617.851,896.187" id="L_M_P_0" class="edge-thickness-normal edge-pattern-solid edge-thickness-normal edge-pattern-solid flowchart-link" style="" marker-end="url(#mermaid-svg-16_flowchart-v2-pointEnd)"/><path d="M432.675,499L442.439,503.167C452.203,507.333,471.73,515.667,481.494,524C491.258,532.333,491.258,540.667,459.376,549C427.494,557.333,363.73,565.667,331.848,578.5C299.966,591.333,299.966,608.667,299.966,626C299.966,643.333,299.966,660.667,299.966,673.5C299.966,686.333,299.966,694.667,299.966,707.5C299.966,720.333,299.966,737.667,299.966,755C299.966,772.333,299.966,789.667,299.966,802.5C299.966,815.333,299.966,823.667,299.966,832C299.966,840.333,299.966,848.667,491.145,862.234C682.324,875.802,1064.681,894.604,1255.86,904.005L1447.039,913.406" id="L_G_P_0" class="edge-thickness-normal edge-pattern-solid edge-thickness-normal edge-pattern-solid flowchart-link" style="" marker-end="url(#mermaid-svg-16_flowchart-v2-pointEnd)"/><path d="M638.302,499L639.103,503.167C639.904,507.333,641.507,515.667,642.308,524C643.109,532.333,643.109,540.667,592.586,549C542.062,557.333,441.014,565.667,390.49,578.5C339.966,591.333,339.966,608.667,339.966,626C339.966,643.333,339.966,660.667,339.966,673.5C339.966,686.333,339.966,694.667,339.966,707.5C339.966,720.333,339.966,737.667,339.966,755C339.966,772.333,339.966,789.667,339.966,802.5C339.966,815.333,339.966,823.667,339.966,832C339.966,840.333,339.966,848.667,427.824,862.043C515.682,875.419,691.397,893.837,779.255,903.047L867.113,912.256" id="L_H_N_0" class="edge-thickness-normal edge-pattern-solid edge-thickness-normal edge-pattern-solid flowchart-link" style="" marker-end="url(#mermaid-svg-16_flowchart-v2-pointEnd)"/><path d="M1165.165,499L1176.181,503.167C1187.198,507.333,1209.23,515.667,1220.247,524C1231.263,532.333,1231.263,540.667,1261.287,549C1291.312,557.333,1351.36,565.667,1381.385,578.5C1411.409,591.333,1411.409,608.667,1411.409,626C1411.409,643.333,1411.409,660.667,1411.409,673.5C1411.409,686.333,1411.409,694.667,1411.409,707.5C1411.409,720.333,1411.409,737.667,1411.409,755C1411.409,772.333,1411.409,789.667,1411.409,802.5C1411.409,815.333,1411.409,823.667,1411.409,832C1411.409,840.333,1411.409,848.667,1337.712,861.889C1264.015,875.112,1116.622,893.223,1042.925,902.279L969.228,911.335" id="L_I_N_0" class="edge-thickness-normal edge-pattern-solid edge-thickness-normal edge-pattern-solid flowchart-link" style="" marker-end="url(#mermaid-svg-16_flowchart-v2-pointEnd)"/><path d="M1621.669,487.399L1669.424,493.499C1717.18,499.599,1812.69,511.8,1860.445,522.067C1908.201,532.333,1908.201,540.667,1908.201,549C1908.201,557.333,1908.201,565.667,1908.201,578.5C1908.201,591.333,1908.201,608.667,1908.201,626C1908.201,643.333,1908.201,660.667,1908.201,673.5C1908.201,686.333,1908.201,694.667,1908.201,707.5C1908.201,720.333,1908.201,737.667,1908.201,755C1908.201,772.333,1908.201,789.667,1908.201,802.5C1908.201,815.333,1908.201,823.667,1908.201,832C1908.201,840.333,1908.201,848.667,1751.709,862.414C1595.217,876.161,1282.234,895.321,1125.742,904.901L969.25,914.482" id="L_J_N_0" class="edge-thickness-normal edge-pattern-solid edge-thickness-normal edge-pattern-solid flowchart-link" style="" marker-end="url(#mermaid-svg-16_flowchart-v2-pointEnd)"/></g><g class="edgeLabels"><g class="edgeLabel"><g class="label" transform="translate(0, 0)"><foreignObject width="0" height="0"><div xmlns="http://www.w3.org/1999/xhtml" class="labelBkg" style="display: table-cell; white-space: nowrap; line-height: 1.5; max-width: 200px; text-align: center;"><span class="edgeLabel"></span></div></foreignObject></g></g><g class="edgeLabel"><g class="label" transform="translate(0, 0)"><foreignObject width="0" height="0"><div xmlns="http://www.w3.org/1999/xhtml" class="labelBkg" style="display: table-cell; white-space: nowrap; line-height: 1.5; max-width: 200px; text-align: center;"><span class="edgeLabel"></span></div></foreignObject></g></g><g class="edgeLabel"><g class="label" transform="translate(0, 0)"><foreignObject width="0" height="0"><div xmlns="http://www.w3.org/1999/xhtml" class="labelBkg" style="display: table-cell; white-space: nowrap; line-height: 1.5; max-width: 200px; text-align: center;"><span class="edgeLabel"></span></div></foreignObject></g></g><g class="edgeLabel"><g class="label" transform="translate(0, 0)"><foreignObject width="0" height="0"><div xmlns="http://www.w3.org/1999/xhtml" class="labelBkg" style="display: table-cell; white-space: nowrap; line-height: 1.5; max-width: 200px; text-align: center;"><span class="edgeLabel"></span></div></foreignObject></g></g><g class="edgeLabel"><g class="label" transform="translate(0, 0)"><foreignObject width="0" height="0"><div xmlns="http://www.w3.org/1999/xhtml" class="labelBkg" style="display: table-cell; white-space: nowrap; line-height: 1.5; max-width: 200px; text-align: center;"><span class="edgeLabel"></span></div></foreignObject></g></g><g class="edgeLabel"><g class="label" transform="translate(0, 0)"><foreignObject width="0" height="0"><div xmlns="http://www.w3.org/1999/xhtml" class="labelBkg" style="display: table-cell; white-space: nowrap; line-height: 1.5; max-width: 200px; text-align: center;"><span class="edgeLabel"></span></div></foreignObject></g></g><g class="edgeLabel"><g class="label" transform="translate(0, 0)"><foreignObject width="0" height="0"><div xmlns="http://www.w3.org/1999/xhtml" class="labelBkg" style="display: table-cell; white-space: nowrap; line-height: 1.5; max-width: 200px; text-align: center;"><span class="edgeLabel"></span></div></foreignObject></g></g><g class="edgeLabel"><g class="label" transform="translate(0, 0)"><foreignObject width="0" height="0"><div xmlns="http://www.w3.org/1999/xhtml" class="labelBkg" style="display: table-cell; white-space: nowrap; line-height: 1.5; max-width: 200px; text-align: center;"><span class="edgeLabel"></span></div></foreignObject></g></g><g class="edgeLabel"><g class="label" transform="translate(0, 0)"><foreignObject width="0" height="0"><div xmlns="http://www.w3.org/1999/xhtml" class="labelBkg" style="display: table-cell; white-space: nowrap; line-height: 1.5; max-width: 200px; text-align: center;"><span class="edgeLabel"></span></div></foreignObject></g></g><g class="edgeLabel"><g class="label" transform="translate(0, 0)"><foreignObject width="0" height="0"><div xmlns="http://www.w3.org/1999/xhtml" class="labelBkg" style="display: table-cell; white-space: nowrap; line-height: 1.5; max-width: 200px; text-align: center;"><span class="edgeLabel"></span></div></foreignObject></g></g><g class="edgeLabel"><g class="label" transform="translate(0, 0)"><foreignObject width="0" height="0"><div xmlns="http://www.w3.org/1999/xhtml" class="labelBkg" style="display: table-cell; white-space: nowrap; line-height: 1.5; max-width: 200px; text-align: center;"><span class="edgeLabel"></span></div></foreignObject></g></g><g class="edgeLabel"><g class="label" transform="translate(0, 0)"><foreignObject width="0" height="0"><div xmlns="http://www.w3.org/1999/xhtml" class="labelBkg" style="display: table-cell; white-space: nowrap; line-height: 1.5; max-width: 200px; text-align: center;"><span class="edgeLabel"></span></div></foreignObject></g></g><g class="edgeLabel"><g class="label" transform="translate(0, 0)"><foreignObject width="0" height="0"><div xmlns="http://www.w3.org/1999/xhtml" class="labelBkg" style="display: table-cell; white-space: nowrap; line-height: 1.5; max-width: 200px; text-align: center;"><span class="edgeLabel"></span></div></foreignObject></g></g><g class="edgeLabel"><g class="label" transform="translate(0, 0)"><foreignObject width="0" height="0"><div xmlns="http://www.w3.org/1999/xhtml" class="labelBkg" style="display: table-cell; white-space: nowrap; line-height: 1.5; max-width: 200px; text-align: center;"><span class="edgeLabel"></span></div></foreignObject></g></g><g class="edgeLabel"><g class="label" transform="translate(0, 0)"><foreignObject width="0" height="0"><div xmlns="http://www.w3.org/1999/xhtml" class="labelBkg" style="display: table-cell; white-space: nowrap; line-height: 1.5; max-width: 200px; text-align: center;"><span class="edgeLabel"></span></div></foreignObject></g></g><g class="edgeLabel"><g class="label" transform="translate(0, 0)"><foreignObject width="0" height="0"><div xmlns="http://www.w3.org/1999/xhtml" class="labelBkg" style="display: table-cell; white-space: nowrap; line-height: 1.5; max-width: 200px; text-align: center;"><span class="edgeLabel"></span></div></foreignObject></g></g><g class="edgeLabel"><g class="label" transform="translate(0, 0)"><foreignObject width="0" height="0"><div xmlns="http://www.w3.org/1999/xhtml" class="labelBkg" style="display: table-cell; white-space: nowrap; line-height: 1.5; max-width: 200px; text-align: center;"><span class="edgeLabel"></span></div></foreignObject></g></g><g class="edgeLabel"><g class="label" transform="translate(0, 0)"><foreignObject width="0" height="0"><div xmlns="http://www.w3.org/1999/xhtml" class="labelBkg" style="display: table-cell; white-space: nowrap; line-height: 1.5; max-width: 200px; text-align: center;"><span class="edgeLabel"></span></div></foreignObject></g></g><g class="edgeLabel"><g class="label" transform="translate(0, 0)"><foreignObject width="0" height="0"><div xmlns="http://www.w3.org/1999/xhtml" class="labelBkg" style="display: table-cell; white-space: nowrap; line-height: 1.5; max-width: 200px; text-align: center;"><span class="edgeLabel"></span></div></foreignObject></g></g><g class="edgeLabel"><g class="label" transform="translate(0, 0)"><foreignObject width="0" height="0"><div xmlns="http://www.w3.org/1999/xhtml" class="labelBkg" style="display: table-cell; white-space: nowrap; line-height: 1.5; max-width: 200px; text-align: center;"><span class="edgeLabel"></span></div></foreignObject></g></g><g class="edgeLabel"><g class="label" transform="translate(0, 0)"><foreignObject width="0" height="0"><div xmlns="http://www.w3.org/1999/xhtml" class="labelBkg" style="display: table-cell; white-space: nowrap; line-height: 1.5; max-width: 200px; text-align: center;"><span class="edgeLabel"></span></div></foreignObject></g></g><g class="edgeLabel"><g class="label" transform="translate(0, 0)"><foreignObject width="0" height="0"><div xmlns="http://www.w3.org/1999/xhtml" class="labelBkg" style="display: table-cell; white-space: nowrap; line-height: 1.5; max-width: 200px; text-align: center;"><span class="edgeLabel"></span></div></foreignObject></g></g><g class="edgeLabel"><g class="label" transform="translate(0, 0)"><foreignObject width="0" height="0"><div xmlns="http://www.w3.org/1999/xhtml" class="labelBkg" style="display: table-cell; white-space: nowrap; line-height: 1.5; max-width: 200px; text-align: center;"><span class="edgeLabel"></span></div></foreignObject></g></g><g class="edgeLabel"><g class="label" transform="translate(0, 0)"><foreignObject width="0" height="0"><div xmlns="http://www.w3.org/1999/xhtml" class="labelBkg" style="display: table-cell; white-space: nowrap; line-height: 1.5; max-width: 200px; text-align: center;"><span class="edgeLabel"></span></div></foreignObject></g></g><g class="edgeLabel"><g class="label" transform="translate(0, 0)"><foreignObject width="0" height="0"><div xmlns="http://www.w3.org/1999/xhtml" class="labelBkg" style="display: table-cell; white-space: nowrap; line-height: 1.5; max-width: 200px; text-align: center;"><span class="edgeLabel"></span></div></foreignObject></g></g></g><g class="nodes"><g class="node default" id="flowchart-A-0" transform="translate(350.00260162353516, 60)"><rect class="basic label-container" style="" x="-113.265625" y="-27" width="226.53125" height="54"/><g class="label" style="" transform="translate(-83.265625, -12)"><rect/><foreignObject width="166.53125" height="24"><div xmlns="http://www.w3.org/1999/xhtml" style="display: table-cell; white-space: nowrap; line-height: 1.5; max-width: 200px; text-align: center;"><span class="nodeLabel"><p>Web App React/Next.js</p></span></div></foreignObject></g></g><g class="node default" id="flowchart-B-1" transform="translate(583.9609375, 60)"><rect class="basic label-container" style="" x="-70.69271087646484" y="-27" width="141.3854217529297" height="54"/><g class="label" style="" transform="translate(-40.692710876464844, -12)"><rect/><foreignObject width="81.38542175292969" height="24"><div xmlns="http://www.w3.org/1999/xhtml" style="display: table-cell; white-space: nowrap; line-height: 1.5; max-width: 200px; text-align: center;"><span class="nodeLabel"><p>PWA Mobile</p></span></div></foreignObject></g></g><g class="node default" id="flowchart-C-2" transform="translate(466.9817695617676, 214)"><rect class="basic label-container" style="" x="-75.94791793823242" y="-27" width="151.89583587646484" height="54"/><g class="label" style="" transform="translate(-45.94791793823242, -12)"><rect/><foreignObject width="91.89583587646484" height="24"><div xmlns="http://www.w3.org/1999/xhtml" style="display: table-cell; white-space: nowrap; line-height: 1.5; max-width: 200px; text-align: center;"><span class="nodeLabel"><p>Kong/Traefik</p></span></div></foreignObject></g></g><g class="node default" id="flowchart-D-3" transform="translate(778.84375, 318)"><rect class="basic label-container" style="" x="-77.90104293823242" y="-27" width="155.80208587646484" height="54"/><g class="label" style="" transform="translate(-47.90104293823242, -12)"><rect/><foreignObject width="95.80208587646484" height="24"><div xmlns="http://www.w3.org/1999/xhtml" style="display: table-cell; white-space: nowrap; line-height: 1.5; max-width: 200px; text-align: center;"><span class="nodeLabel"><p>Rate Limiting</p></span></div></foreignObject></g></g><g class="node default" id="flowchart-E-4" transform="translate(124.09375, 318)"><rect class="basic label-container" style="" x="-64.31771087646484" y="-27" width="128.6354217529297" height="54"/><g class="label" style="" transform="translate(-34.317710876464844, -12)"><rect/><foreignObject width="68.63542175292969" height="24"><div xmlns="http://www.w3.org/1999/xhtml" style="display: table-cell; white-space: nowrap; line-height: 1.5; max-width: 200px; text-align: center;"><span class="nodeLabel"><p>Auth JWT</p></span></div></foreignObject></g></g><g class="node default" id="flowchart-F-5" transform="translate(124.09375, 472)"><rect class="basic label-container" style="" x="-74.44791793823242" y="-27" width="148.89583587646484" height="54"/><g class="label" style="" transform="translate(-44.44791793823242, -12)"><rect/><foreignObject width="88.89583587646484" height="24"><div xmlns="http://www.w3.org/1999/xhtml" style="display: table-cell; white-space: nowrap; line-height: 1.5; max-width: 200px; text-align: center;"><span class="nodeLabel"><p>Service Auth</p></span></div></foreignObject></g></g><g class="node default" id="flowchart-G-6" transform="translate(369.40625, 472)"><rect class="basic label-container" style="" x="-120.86458587646484" y="-27" width="241.7291717529297" height="54"/><g class="label" style="" transform="translate(-90.86458587646484, -12)"><rect/><foreignObject width="181.7291717529297" height="24"><div xmlns="http://www.w3.org/1999/xhtml" style="display: table-cell; white-space: nowrap; line-height: 1.5; max-width: 200px; text-align: center;"><span class="nodeLabel"><p>Service Design Graphique</p></span></div></foreignObject></g></g><g class="node default" id="flowchart-H-7" transform="translate(633.109375, 472)"><rect class="basic label-container" style="" x="-92.83854293823242" y="-27" width="185.67708587646484" height="54"/><g class="label" style="" transform="translate(-62.83854293823242, -12)"><rect/><foreignObject width="125.67708587646484" height="24"><div xmlns="http://www.w3.org/1999/xhtml" style="display: table-cell; white-space: nowrap; line-height: 1.5; max-width: 200px; text-align: center;"><span class="nodeLabel"><p>Service Sites Web</p></span></div></foreignObject></g></g><g class="node default" id="flowchart-I-8" transform="translate(1093.7786483764648, 472)"><rect class="basic label-container" style="" x="-113.921875" y="-27" width="227.84375" height="54"/><g class="label" style="" transform="translate(-83.921875, -12)"><rect/><foreignObject width="167.84375" height="24"><div xmlns="http://www.w3.org/1999/xhtml" style="display: table-cell; white-space: nowrap; line-height: 1.5; max-width: 200px; text-align: center;"><span class="nodeLabel"><p>Service Communication</p></span></div></foreignObject></g></g><g class="node default" id="flowchart-J-9" transform="translate(1501.1171875, 472)"><rect class="basic label-container" style="" x="-120.55208587646484" y="-27" width="241.1041717529297" height="54"/><g class="label" style="" transform="translate(-90.55208587646484, -12)"><rect/><foreignObject width="181.1041717529297" height="24"><div xmlns="http://www.w3.org/1999/xhtml" style="display: table-cell; white-space: nowrap; line-height: 1.5; max-width: 200px; text-align: center;"><span class="nodeLabel"><p>Service Génération Vidéo</p></span></div></foreignObject></g></g><g class="node default" id="flowchart-K-10" transform="translate(1670.5130195617676, 626)"><rect class="basic label-container" style="" x="-75.78125" y="-27" width="151.5625" height="54"/><g class="label" style="" transform="translate(-45.78125, -12)"><rect/><foreignObject width="91.5625" height="24"><div xmlns="http://www.w3.org/1999/xhtml" style="display: table-cell; white-space: nowrap; line-height: 1.5; max-width: 200px; text-align: center;"><span class="nodeLabel"><p>Redis BullMQ</p></span></div></foreignObject></g></g><g class="node default" id="flowchart-L-11" transform="translate(1567.0442695617676, 755)"><rect class="basic label-container" style="" x="-77.71875" y="-27" width="155.4375" height="54"/><g class="label" style="" transform="translate(-47.71875, -12)"><rect/><foreignObject width="95.4375" height="24"><div xmlns="http://www.w3.org/1999/xhtml" style="display: table-cell; white-space: nowrap; line-height: 1.5; max-width: 200px; text-align: center;"><span class="nodeLabel"><p>Worker Vidéo</p></span></div></foreignObject></g></g><g class="node default" id="flowchart-M-12" transform="translate(1773.9817695617676, 755)"><rect class="basic label-container" style="" x="-79.21875" y="-27" width="158.4375" height="54"/><g class="label" style="" transform="translate(-49.21875, -12)"><rect/><foreignObject width="98.4375" height="24"><div xmlns="http://www.w3.org/1999/xhtml" style="display: table-cell; white-space: nowrap; line-height: 1.5; max-width: 200px; text-align: center;"><span class="nodeLabel"><p>Worker Image</p></span></div></foreignObject></g></g><g class="node default" id="flowchart-N-13" transform="translate(918.1744766235352, 917.608455657959)"><path d="M0,10.741445197822479 a47.083335876464844,10.741445197822479 0,0,0 94.16667175292969,0 a47.083335876464844,10.741445197822479 0,0,0 -94.16667175292969,0 l0,49.74144519782248 a47.083335876464844,10.741445197822479 0,0,0 94.16667175292969,0 l0,-49.74144519782248" class="basic label-container" style="" transform="translate(-47.083335876464844, -35.612167796733715)"/><g class="label" style="" transform="translate(-39.583335876464844, -2)"><rect/><foreignObject width="79.16667175292969" height="24"><div xmlns="http://www.w3.org/1999/xhtml" style="display: table-cell; white-space: nowrap; line-height: 1.5; max-width: 200px; text-align: center;"><span class="nodeLabel"><p>PostgreSQL</p></span></div></foreignObject></g></g><g class="node default" id="flowchart-O-14" transform="translate(115.765625, 917.608455657959)"><rect class="basic label-container" style="" x="-72.765625" y="-27" width="145.53125" height="54"/><g class="label" style="" transform="translate(-42.765625, -12)"><rect/><foreignObject width="85.53125" height="24"><div xmlns="http://www.w3.org/1999/xhtml" style="display: table-cell; white-space: nowrap; line-height: 1.5; max-width: 200px; text-align: center;"><span class="nodeLabel"><p>Redis Cache</p></span></div></foreignObject></g></g><g class="node default" id="flowchart-P-15" transform="translate(1532.5026016235352, 917.608455657959)"><rect class="basic label-container" style="" x="-81.46875" y="-27" width="162.9375" height="54"/><g class="label" style="" transform="translate(-51.46875, -12)"><rect/><foreignObject width="102.9375" height="24"><div xmlns="http://www.w3.org/1999/xhtml" style="display: table-cell; white-space: nowrap; line-height: 1.5; max-width: 200px; text-align: center;"><span class="nodeLabel"><p>S3 Compatible</p></span></div></foreignObject></g></g><g class="node default" id="flowchart-Q-16" transform="translate(833.9609375, 626)"><rect class="basic label-container" style="" x="-83.765625" y="-27" width="167.53125" height="54"/><g class="label" style="" transform="translate(-53.765625, -12)"><rect/><foreignObject width="107.53125" height="24"><div xmlns="http://www.w3.org/1999/xhtml" style="display: table-cell; white-space: nowrap; line-height: 1.5; max-width: 200px; text-align: center;"><span class="nodeLabel"><p>OpenAI/Mistral</p></span></div></foreignObject></g></g><g class="node default" id="flowchart-R-17" transform="translate(1091.1171875, 626)"><rect class="basic label-container" style="" x="-76.07291793823242" y="-27" width="152.14583587646484" height="54"/><g class="label" style="" transform="translate(-46.07291793823242, -12)"><rect/><foreignObject width="92.14583587646484" height="24"><div xmlns="http://www.w3.org/1999/xhtml" style="display: table-cell; white-space: nowrap; line-height: 1.5; max-width: 200px; text-align: center;"><span class="nodeLabel"><p>Runway/Pika</p></span></div></foreignObject></g></g><g class="node default" id="flowchart-S-18" transform="translate(1286.7994766235352, 626)"><rect class="basic label-container" style="" x="-69.609375" y="-27" width="139.21875" height="54"/><g class="label" style="" transform="translate(-39.609375, -12)"><rect/><foreignObject width="79.21875" height="24"><div xmlns="http://www.w3.org/1999/xhtml" style="display: table-cell; white-space: nowrap; line-height: 1.5; max-width: 200px; text-align: center;"><span class="nodeLabel"><p>ElevenLabs</p></span></div></foreignObject></g></g><g class="node default" id="flowchart-T-19" transform="translate(481.43489837646484, 626)"><rect class="basic label-container" style="" x="-86.46875" y="-27" width="172.9375" height="54"/><g class="label" style="" transform="translate(-56.46875, -12)"><rect/><foreignObject width="112.9375" height="24"><div xmlns="http://www.w3.org/1999/xhtml" style="display: table-cell; white-space: nowrap; line-height: 1.5; max-width: 200px; text-align: center;"><span class="nodeLabel"><p>Stable Diffusion</p></span></div></foreignObject></g></g></g></g></g></svg>